<?xml version="1.0" encoding="UTF-8"?>
<svg id="_图层_1" data-name="图层 1" xmlns="http://www.w3.org/2000/svg" viewBox="0 0 1000 1000">
  <defs>
    <style>
      .cls-1 {
        fill: #41b883;
      }

      .cls-2 {
        fill: #35495e;
      }
    </style>
  </defs>
  <path class="cls-1" d="M568.77,67.05v464.56c0,37.98-30.79,68.77-68.77,68.77h0c-37.98,0-68.77-30.79-68.77-68.77V67.05H98.23v464.38c0,221.78,179.79,401.57,401.57,401.57h0c221.78,0,401.57-179.79,401.57-401.57V67.05h-332.59Z"/>
  <path class="cls-2" d="M568.77,67.05v464.56c0,37.98-30.79,68.77-68.77,68.77h0c-37.98,0-68.77-30.79-68.77-68.77V67.05h-166.3v464.53c0,129.83,105.24,235.07,235.07,235.07h0c129.83,0,235.07-105.24,235.07-235.07V67.05h-166.3Z"/>
</svg>